<?xml version="1.0" encoding="UTF-8" standalone="no"?>
<svg
   xmlns:dc="http://purl.org/dc/elements/1.1/"
   xmlns:cc="http://creativecommons.org/ns#"
   xmlns:rdf="http://www.w3.org/1999/02/22-rdf-syntax-ns#"
   xmlns:svg="http://www.w3.org/2000/svg"
   xmlns="http://www.w3.org/2000/svg"
   viewBox="0 0 30.706203 29.277506"
   height="29.277506"
   width="30.706203"
   id="svg3705"
   version="1.1">
  <metadata
     id="metadata3711">
    <rdf:RDF>
      <cc:Work
         rdf:about="">
        <dc:format>image/svg+xml</dc:format>
        <dc:type
           rdf:resource="http://purl.org/dc/dcmitype/StillImage" />
        <dc:title></dc:title>
      </cc:Work>
    </rdf:RDF>
  </metadata>
  <defs
     id="defs3709" />
  <path
     id="path3721"
     d="m 8.5062041,25.524882 -6.56,-3.750128 -0.02217,-1.224248 c -0.0122,-0.673336 0.0095,-3.115656 0.04821,-5.427377 L 2.0426201,10.92 1.7719641,9.76 C 1.6231041,9.122 1.2305041,7.43 0.89951957,6 0.56853477,4.57 0.22567317,3.0989624 0.13760597,2.7310272 0.04953797,2.3630926 -0.01155483,2.0539853 0.00184357,2.0441224 c 0.013398,-0.00986 2.11236053,1.0898624 4.66436053,2.4438336 2.552,1.353972 4.709095,2.464079 4.793543,2.466906 C 9.6887201,6.962562 13.691148,5.831929 13.80001,5.728835 13.851603,5.679976 14.603464,4.371 15.470811,2.82 16.338159,1.269 17.073877,0 17.105741,0 c 0.03186,0 1.278004,0.5900055 2.769199,1.3111234 1.491196,0.7211178 4.439264,2.146615 6.551264,3.1677726 2.112,1.021157 3.939,1.892673 4.06,1.936702 0.121,0.04403 0.22,0.11304 0.22,0.153356 0,0.04032 -0.864144,1.584539 -1.92032,3.431606 l -1.92032,3.358304 0.07893,4.660568 c 0.04341,2.563312 0.07956,5.202697 0.08032,5.865298 l 0.0014,1.20473 -0.38,0.12614 c -0.209,0.06938 -2.872745,1.012249 -5.919435,2.09527 -3.046689,1.083021 -5.566689,1.968007 -5.6,1.966635 -0.03331,-0.0014 -3.012565,-1.690053 -6.6205649,-3.752623 z m 12.3999999,0.487013 4.88,-1.738399 -0.0043,-2.676748 c -0.0102,-6.325938 -0.0317,-7.516814 -0.135683,-7.515109 -0.055,9.04e-4 -2.296,0.821143 -4.98,1.822759 l -4.88,1.821118 -0.0206,5.017242 c -0.01947,4.742543 -0.0129,5.016976 0.12,5.012389 0.07733,-0.0027 2.336601,-0.787133 5.020601,-1.743252 z m -6.299394,-3.375744 -0.02061,-4.963848 -1.28,-0.66198 c -0.704,-0.364088 -2.63,-1.35676 -4.2799999,-2.205937 -1.65,-0.849177 -3.61599,-1.863554 -4.368868,-2.254172 C 3.9044601,12.159596 3.2704401,11.84 3.2484061,11.84 c -0.03886,0 -0.118692,3.658397 -0.161298,7.391411 l -0.0209,1.831411 5.72,3.267274 c 3.1459999,1.797 5.7472729,3.267866 5.7806059,3.268589 0.03333,7.2e-4 0.05133,-2.232417 0.04,-4.962534 z m 5.819394,-7.891345 c 2.42,-0.901122 4.40963,-1.647973 4.4214,-1.65967 0.01831,-0.0182 -9.891867,-5.557654 -10.075396,-5.631802 -0.0363,-0.01467 -0.066,0.499547 -0.066,1.142697 v 1.169365 l 0.28,0.165204 c 0.16069,0.09481 0.28,0.228713 0.28,0.314248 0,0.311081 0.403476,5.72751 0.445595,5.981838 0.03495,0.211052 0.07235,0.255196 0.179285,0.211604 0.07432,-0.03029 2.11512,-0.792363 4.53512,-1.693484 z M 14.500252,15.86 c -0.0572,-0.565872 -0.354048,-4.634288 -0.354048,-4.852443 0,-0.164483 -0.237068,-0.313523 -1.86,-1.169349 C 11.263204,9.298746 8.4884871,7.833178 6.1201641,6.58139 3.7518431,5.329602 1.7948061,4.324732 1.7711931,4.348344 c -0.06794,0.067946 1.331358,6.001608 1.438637,6.100454 0.05301,0.04884 0.762374,0.431374 1.576374,0.850076 3.342336,1.719218 5.2735529,2.714989 7.3599999,3.79495 1.21,0.626306 2.243304,1.140411 2.296232,1.142457 0.06714,0.0026 0.08462,-0.111144 0.05782,-0.376281 z M 27.618468,9.684008 c 0.81533,-1.427796 1.474063,-2.604348 1.463851,-2.614561 -0.0214,-0.0214 -5.058023,-2.4579718 -6.016115,-2.9104214 -0.352,-0.166228 -1.396,-0.6700864 -2.32,-1.1196856 -2.307488,-1.1227748 -3.175965,-1.5300414 -3.203667,-1.502339 -0.135306,0.1353057 -2.594513,4.665156 -2.544188,4.686383 0.03732,0.01574 2.533855,1.406543 5.547855,3.090672 3.014,1.684128 5.504716,3.040427 5.534923,3.013998 0.03021,-0.02643 0.72201,-1.216251 1.537341,-2.644046 z M 13.577254,8.12 c -0.01097,-0.613522 -0.04936,-1 -0.09933,-1 -0.228523,0 -2.452754,0.67033 -2.396905,0.72237 0.127146,0.118474 2.30686,1.271308 2.409647,1.274444 0.08147,0.0025 0.100528,-0.216912 0.08659,-0.996814 z"
     style="fill:#b4b4b4;fill-opacity:1;stroke-width:0.08" />
</svg>
