<?xml version="1.0" encoding="UTF-8" standalone="no"?>
<svg
   xmlns:dc="http://purl.org/dc/elements/1.1/"
   xmlns:cc="http://creativecommons.org/ns#"
   xmlns:rdf="http://www.w3.org/1999/02/22-rdf-syntax-ns#"
   xmlns:svg="http://www.w3.org/2000/svg"
   xmlns="http://www.w3.org/2000/svg"
   id="svg8"
   version="1.1"
   viewBox="0 0 10.765524 10.038488"
   height="10.038488mm"
   width="10.765524mm">
  <defs
     id="defs2" />
  <metadata
     id="metadata5">
    <rdf:RDF>
      <cc:Work
         rdf:about="">
        <dc:format>image/svg+xml</dc:format>
        <dc:type
           rdf:resource="http://purl.org/dc/dcmitype/StillImage" />
        <dc:title></dc:title>
      </cc:Work>
    </rdf:RDF>
  </metadata>
  <g
     transform="translate(-90.264422,-172.85424)"
     id="layer1">
    <path
       id="path27"
       d="m 93.057731,181.7848 -2.20486,-1.26753 v -2.18677 c 0,-1.20271 -0.15603,-2.73082 -0.34674,-3.39578 -0.19071,-0.66497 -0.28928,-1.2665 -0.21905,-1.33673 0.0702,-0.0702 0.8417,0.21919 1.71436,0.64316 1.88386,0.91525 3.13797,0.72869 3.72228,-0.55373 0.51308,-1.1261 1.00195,-1.11678 3.41162,0.065 2.027129,0.9942 2.307749,1.538 1.407699,2.72796 -0.32933,0.43542 -0.51794,1.50181 -0.51794,2.92842 v 2.24363 l -1.302989,0.54442 c -2.4313,1.01586 -3.28902,0.95347 -5.66438,-0.41208 z m 6.545872,-2.27783 c 0.11968,-2.03518 0.17662,-2.01697 -2.634582,-0.84238 -1.0769,0.44996 -1.17726,0.6218 -1.17726,2.01586 0,0.83818 0.0874,1.6114 0.1943,1.71826 0.10686,0.10687 0.9403,-0.0881 1.85208,-0.43324 1.655472,-0.62665 1.657942,-0.63009 1.765462,-2.4585 z m -4.164622,1.12464 v -1.69039 l -1.94809,-0.95544 c -1.07145,-0.52549 -2.02395,-0.95543 -2.11667,-0.95543 -0.0927,0 -0.16857,0.70127 -0.16857,1.55838 0,1.50766 0.0603,1.59351 1.85208,2.63805 1.01865,0.59382 1.97115,1.08317 2.11667,1.08745 0.14552,0.004 0.26458,-0.7529 0.26458,-1.68262 z m -0.1304,-3.78503 c -0.10454,-0.27243 -1.172,-0.991 -2.37212,-1.59682 -1.68401,-0.85009 -2.13055,-0.9673 -1.95643,-0.51354 0.12409,0.32337 0.22562,0.81054 0.22562,1.0826 0,0.27206 0.91281,0.95819 2.02847,1.52473 1.61785,0.82155 2.05237,0.92565 2.14651,0.51422 0.0649,-0.28373 0.0325,-0.73876 -0.0721,-1.01119 z m 2.93176,0.82535 c 0.8563,-0.32075 0.85337,-0.32727 -0.52917,-1.17661 -1.90923,-1.1729 -2.13675,-1.11004 -1.97876,0.54669 0.14598,1.53077 0.1202,1.5243 2.50793,0.62992 z m 2.243099,-2.52006 c -0.10561,-0.17089 -1.006007,-0.68972 -2.000879,-1.15295 -1.67577,-0.78029 -1.8413,-0.79861 -2.24983,-0.2491 -0.66697,0.89715 -0.5868,1.02101 1.41112,2.18018 l 1.852082,1.07455 0.589767,-0.77099 c 0.32437,-0.42404 0.50336,-0.9108 0.39774,-1.08169 z"
       style="fill:#b1b1b1;stroke-width:0.35277778" />
  </g>
</svg>
